<svg width="39" height="39" viewBox="0 0 39 39" fill="none" xmlns="http://www.w3.org/2000/svg">
<circle cx="19.5" cy="19.5" r="19.25" fill="white" stroke="#D6D6FA" stroke-width="0.5"/>
<path d="M29.75 16.1667L27.4167 28.6667H25.0833M29.75 16.1667L23.3333 20.8542M29.75 16.1667C30.7165 16.1667 31.5 15.4671 31.5 14.6042C31.5 13.7412 30.7165 13.0417 29.75 13.0417C28.7835 13.0417 28 13.7412 28 14.6042C28 15.4671 28.7835 16.1667 29.75 16.1667ZM19.25 15.125L15.1667 20.8542M19.25 15.125L21.4773 18.25M19.25 15.125C20.2165 15.125 21 14.4254 21 13.5625C21 12.6996 20.2165 12 19.25 12C18.2835 12 17.5 12.6996 17.5 13.5625C17.5 14.4254 18.2835 15.125 19.25 15.125ZM8.75 16.1667L11.0833 28.6667H19.25M8.75 16.1667L12.25 18.7234M8.75 16.1667C9.7165 16.1667 10.5 15.4671 10.5 14.6042C10.5 13.7412 9.7165 13.0417 8.75 13.0417C7.7835 13.0417 7 13.7412 7 14.6042C7 15.4671 7.7835 16.1667 8.75 16.1667Z" stroke="#BA9955" stroke-width="2" stroke-linecap="round" stroke-linejoin="round"/>
</svg>
