<svg width="41" height="33" viewBox="0 0 41 33" fill="none" xmlns="http://www.w3.org/2000/svg">
<path d="M40.7404 5.97028C40.5234 5.74268 40.1995 5.61068 39.8575 5.61068H7.2044L6.12099 0.79673C6.01681 0.334154 5.54638 0 4.99932 0H1.14251C0.511361 0 0 0.440538 0 0.983883C0 1.52723 0.511361 1.96777 1.14251 1.96777H4.05679L8.97672 24.1387C9.07285 24.6091 9.54743 24.9522 10.1019 24.9522H14.1378C11.9711 25.2901 10.3221 26.9255 10.3221 28.8874C10.3221 31.0931 12.406 32.8877 14.9674 32.8877C17.5288 32.8877 19.6125 31.0932 19.6125 28.8874C19.6125 26.9255 17.9638 25.2902 15.797 24.9522H30.636C28.4692 25.2901 26.8201 26.9255 26.8201 28.8874C26.8201 31.0931 28.9042 32.8877 31.4657 32.8877C34.0271 32.8877 36.111 31.0932 36.111 28.8874C36.111 26.9255 34.4622 25.2902 32.2955 24.9522H35.7746C36.4056 24.9522 36.9171 24.5116 36.9171 23.9683C36.9171 23.4248 36.4056 22.9844 35.7746 22.9844H11.0612L10.7112 21.2697H36.7029C37.2484 21.2697 37.7175 20.9379 37.8237 20.4773L40.9782 6.78611C41.0447 6.49724 40.9574 6.19793 40.7404 5.97028ZM33.8261 28.8874C33.8261 30.0081 32.7673 30.9199 31.4659 30.9199C30.1644 30.9199 29.1054 30.0081 29.1054 28.8874C29.1054 27.7666 30.1644 26.8549 31.4659 26.8549C32.7673 26.8549 33.8261 27.7666 33.8261 28.8874ZM17.3276 28.8874C17.3276 30.0081 16.2689 30.9199 14.9676 30.9199C13.6661 30.9199 12.6072 30.0081 12.6072 28.8874C12.6072 27.7666 13.6661 26.8549 14.9676 26.8549C16.2688 26.8549 17.3276 27.7666 17.3276 28.8874ZM10.2861 19.3019L8.73654 12.4176H13.0486L14.362 19.3019H10.2861ZM21.9135 19.3019H16.6777L15.3643 12.4176H21.9135V19.3019H21.9135ZM29.5167 19.3019H24.1985V12.4177H30.6642L29.5167 19.3019ZM35.7649 19.3019H31.8252L32.9728 12.4176H37.351L35.7649 19.3019ZM37.8043 10.4499H8.29372L7.64737 7.57857H38.466L37.8043 10.4499Z" fill="#BA9955"/>
</svg>
