<svg width="30" height="30" viewBox="0 0 30 30" fill="none" xmlns="http://www.w3.org/2000/svg">
<path d="M11.2332 22.5244C13.9364 22.5244 16.4896 21.5662 18.5215 19.8234L28.3986 29.7244C28.5815 29.9081 28.8224 30 29.0625 30C29.3016 30 29.5416 29.9091 29.7245 29.7262C30.0911 29.3606 30.092 28.7672 29.7263 28.4006L19.8408 18.4922C23.5416 14.0728 23.326 7.455 19.1797 3.3C17.0569 1.17188 14.2346 0 11.2323 0C8.22993 0 5.40762 1.17188 3.2848 3.3C-1.09493 7.69031 -1.09493 14.835 3.2848 19.2253C5.40856 21.3525 8.23086 22.5244 11.2332 22.5244ZM4.61344 4.62375C6.38183 2.85094 8.7325 1.875 11.2332 1.875C13.7339 1.875 16.0846 2.85094 17.853 4.62375C21.5051 8.28469 21.5051 14.2406 17.853 17.9016C16.0846 19.6744 13.7339 20.6503 11.2332 20.6503C8.7325 20.6503 6.38183 19.6744 4.61344 17.9016C0.962257 14.2406 0.962257 8.28469 4.61344 4.62375Z" fill="#BA9955"/>
</svg>
